<svg xmlns="http://www.w3.org/2000/svg" width="215.93" height="35" viewBox="0 0 215.93 35"><rect class="svg__rect" x="0" y="0" width="109.03" height="35" fill="#F33131"/><rect class="svg__rect" x="107.03" y="0" width="108.89999999999999" height="35" fill="#CC0000"/><path class="svg__text" d="M15.60 22L13.63 13.47L15.10 13.47L16.43 19.88L18.06 13.47L19.30 13.47L20.91 19.89L22.22 13.47L23.69 13.47L21.72 22L20.31 22L18.68 15.77L17.02 22L15.60 22ZM28.54 22L27.00 22L30.23 13.47L31.56 13.47L34.78 22L33.24 22L32.54 20.01L29.23 20.01L28.54 22ZM30.89 15.28L29.65 18.82L32.12 18.82L30.89 15.28ZM40.42 14.66L37.78 14.66L37.78 13.47L44.55 13.47L44.55 14.66L41.89 14.66L41.89 22L40.42 22L40.42 14.66ZM48.04 18.19L48.04 18.19L48.04 17.39Q48.04 16.19 48.47 15.27Q48.89 14.35 49.69 13.85Q50.49 13.35 51.54 13.35L51.54 13.35Q52.95 13.35 53.81 14.12Q54.68 14.89 54.82 16.29L54.82 16.29L53.34 16.29Q53.23 15.37 52.80 14.96Q52.37 14.55 51.54 14.55L51.54 14.55Q50.57 14.55 50.06 15.26Q49.54 15.96 49.53 17.33L49.53 17.33L49.53 18.09Q49.53 19.47 50.02 20.20Q50.52 20.92 51.47 20.92L51.47 20.92Q52.34 20.92 52.78 20.53Q53.22 20.14 53.34 19.22L53.34 19.22L54.82 19.22Q54.69 20.59 53.81 21.35Q52.93 22.12 51.47 22.12L51.47 22.12Q50.45 22.12 49.68 21.63Q48.90 21.15 48.48 20.26Q48.06 19.37 48.04 18.19ZM60.61 22L59.13 22L59.13 13.47L60.61 13.47L60.61 17.02L64.43 17.02L64.43 13.47L65.90 13.47L65.90 22L64.43 22L64.43 18.21L60.61 18.21L60.61 22ZM76.35 18.00L76.35 18.00L76.35 17.52Q76.35 16.28 76.79 15.32Q77.23 14.37 78.04 13.86Q78.85 13.35 79.89 13.35Q80.93 13.35 81.74 13.85Q82.54 14.35 82.98 15.29Q83.42 16.23 83.43 17.48L83.43 17.48L83.43 17.96Q83.43 19.21 82.99 20.16Q82.56 21.10 81.76 21.61Q80.95 22.12 79.90 22.12L79.90 22.12Q78.86 22.12 78.05 21.61Q77.24 21.10 76.80 20.17Q76.36 19.23 76.35 18.00ZM77.83 17.46L77.83 17.96Q77.83 19.36 78.38 20.13Q78.93 20.90 79.90 20.90L79.90 20.90Q80.89 20.90 81.42 20.15Q81.95 19.40 81.95 17.96L81.95 17.96L81.95 17.51Q81.95 16.09 81.41 15.34Q80.87 14.58 79.89 14.58L79.89 14.58Q78.93 14.58 78.39 15.33Q77.84 16.09 77.83 17.46L77.83 17.46ZM89.38 22L87.89 22L87.89 13.47L89.38 13.47L93.19 19.54L93.19 13.47L94.66 13.47L94.66 22L93.18 22L89.38 15.95L89.38 22Z" fill="#FFFFFF"/><path class="svg__text" d="M123.34 18.95L120.14 13.60L122.65 13.60L124.64 16.94L126.63 13.60L128.93 13.60L125.72 18.99L125.72 22L123.34 22L123.34 18.95ZM132.59 17.80L132.59 17.80Q132.59 16.55 133.19 15.55Q133.80 14.56 134.86 14.00Q135.92 13.43 137.25 13.43L137.25 13.43Q138.59 13.43 139.65 14.00Q140.71 14.56 141.32 15.55Q141.92 16.55 141.92 17.80L141.92 17.80Q141.92 19.05 141.32 20.04Q140.71 21.04 139.65 21.60Q138.59 22.17 137.25 22.17L137.25 22.17Q135.92 22.17 134.86 21.60Q133.80 21.04 133.19 20.04Q132.59 19.05 132.59 17.80ZM134.99 17.80L134.99 17.80Q134.99 18.51 135.29 19.05Q135.59 19.60 136.11 19.90Q136.62 20.20 137.25 20.20L137.25 20.20Q137.89 20.20 138.41 19.90Q138.92 19.60 139.22 19.05Q139.52 18.51 139.52 17.80L139.52 17.80Q139.52 17.09 139.22 16.54Q138.92 16 138.41 15.70Q137.89 15.40 137.25 15.40L137.25 15.40Q136.62 15.40 136.10 15.70Q135.59 16 135.29 16.54Q134.99 17.09 134.99 17.80ZM146.58 18.26L146.58 18.26L146.58 13.60L148.96 13.60L148.96 18.19Q148.96 20.20 150.56 20.20L150.56 20.20Q152.14 20.20 152.14 18.19L152.14 18.19L152.14 13.60L154.48 13.60L154.48 18.26Q154.48 20.13 153.44 21.15Q152.40 22.17 150.53 22.17L150.53 22.17Q148.66 22.17 147.62 21.15Q146.58 20.13 146.58 18.26ZM161.36 15.48L158.78 15.48L158.78 13.60L166.30 13.60L166.30 15.48L163.73 15.48L163.73 22L161.36 22L161.36 15.48ZM170.60 18.26L170.60 18.26L170.60 13.60L172.98 13.60L172.98 18.19Q172.98 20.20 174.57 20.20L174.57 20.20Q176.16 20.20 176.16 18.19L176.16 18.19L176.16 13.60L178.50 13.60L178.50 18.26Q178.50 20.13 177.46 21.15Q176.42 22.17 174.55 22.17L174.55 22.17Q172.67 22.17 171.64 21.15Q170.60 20.13 170.60 18.26ZM188.13 22L183.59 22L183.59 13.60L187.89 13.60Q189.49 13.60 190.33 14.19Q191.17 14.79 191.17 15.79L191.17 15.79Q191.17 16.39 190.88 16.87Q190.58 17.34 190.04 17.62L190.04 17.62Q190.76 17.87 191.17 18.41Q191.58 18.94 191.58 19.70L191.58 19.70Q191.58 20.80 190.69 21.40Q189.80 22 188.13 22L188.13 22ZM185.94 18.58L185.94 20.28L187.93 20.28Q189.18 20.28 189.18 19.43L189.18 19.43Q189.18 18.58 187.93 18.58L187.93 18.58L185.94 18.58ZM185.94 15.31L185.94 16.94L187.57 16.94Q188.77 16.94 188.77 16.12L188.77 16.12Q188.77 15.31 187.57 15.31L187.57 15.31L185.94 15.31ZM203.04 22L196.29 22L196.29 13.60L202.89 13.60L202.89 15.44L198.65 15.44L198.65 16.85L202.38 16.85L202.38 18.63L198.65 18.63L198.65 20.17L203.04 20.17L203.04 22Z" fill="#FFFFFF" x="120.03"/></svg>